<svg width="24" height="24" viewBox="0 0 24 24" fill="none" xmlns="http://www.w3.org/2000/svg">
<rect width="24" height="24" rx="12" fill="#DEF7EC"/>
<path fill-rule="evenodd" clip-rule="evenodd" d="M18.0362 7.76375C18.2049 7.93253 18.2997 8.1614 18.2997 8.40005C18.2997 8.6387 18.2049 8.86758 18.0362 9.03635L10.8362 16.2364C10.6674 16.4051 10.4385 16.4999 10.1999 16.4999C9.96123 16.4999 9.73235 16.4051 9.56358 16.2364L5.96358 12.6364C5.79964 12.4666 5.70892 12.2393 5.71097 12.0033C5.71302 11.7673 5.80767 11.5416 5.97454 11.3747C6.14141 11.2078 6.36714 11.1132 6.60312 11.1111C6.83909 11.1091 7.06644 11.1998 7.23618 11.3638L10.1999 14.3275L16.7636 7.76375C16.9324 7.59503 17.1612 7.50024 17.3999 7.50024C17.6385 7.50024 17.8674 7.59503 18.0362 7.76375Z" fill="#0E9F6E"/>
</svg>
