<svg width="496" height="412" viewBox="0 0 496 412" fill="none" xmlns="http://www.w3.org/2000/svg">
<g clip-path="url(#clip0_13191_63934)">
<path d="M256.495 0H112.365C89.9488 0 71.7767 18.1661 71.7767 40.575V369.816C71.7767 392.225 89.9488 410.391 112.365 410.391H256.495C278.911 410.391 297.084 392.225 297.084 369.816V40.575C297.084 18.1661 278.911 0 256.495 0Z" fill="#3F3D56"/>
<path d="M293.283 40.5778V369.816C293.271 379.566 289.392 388.914 282.495 395.809C275.598 402.703 266.248 406.581 256.494 406.592H112.367C102.613 406.581 93.2625 402.703 86.3658 395.809C79.469 388.914 75.5895 379.566 75.5782 369.816V40.5778C75.5895 30.8276 79.469 21.4799 86.3658 14.5855C93.2625 7.69107 102.613 3.8128 112.367 3.80151H131.214V10.3097C131.214 13.2561 132.385 16.0818 134.469 18.1652C136.553 20.2486 139.38 21.4191 142.327 21.4193H226.534C229.481 21.4191 232.308 20.2486 234.392 18.1652C236.476 16.0818 237.647 13.2561 237.647 10.3097V3.80151H256.494C266.248 3.8128 275.598 7.69107 282.495 14.5855C289.392 21.4799 293.271 30.8276 293.283 40.5778Z" fill="white"/>
<path d="M231.621 181.099C223.266 177.334 213.952 185.857 220.15 193.833C199.211 212.899 168.119 219.608 141.051 211.633C140.383 213.242 139.681 214.833 138.962 216.425C128.205 240.239 112.797 261.665 93.6426 279.443C118.862 258.477 149.936 276.191 176.662 283.089C178.481 283.4 180.17 284.234 181.522 285.489C182.874 286.744 183.831 288.366 184.276 290.156C184.721 291.947 184.635 293.828 184.027 295.569C183.42 297.311 182.319 298.839 180.857 299.964C177.453 298.705 173.931 297.787 170.345 297.226C168.652 296.969 166.922 297.243 165.392 298.009C163.862 298.775 162.607 299.997 161.8 301.506C160.992 303.015 160.673 304.736 160.885 306.434C161.096 308.132 161.829 309.722 162.983 310.987C134.99 324.405 100.166 319.459 76.1449 300.187V288.737C101.57 269.221 121.851 243.8 135.229 214.679C139.932 204.452 143.736 193.834 146.598 182.948C149.725 171.041 151.652 158.851 152.35 146.561C147.745 132.988 148.515 117.054 156.186 104.731C159.353 110.482 168.478 111.971 169.437 103.995C169.643 100.777 169.797 97.5596 169.985 94.359C204.381 91.7062 198.509 139.851 156.425 147.382C155.605 159.749 153.598 172.008 150.433 183.992C150.142 185.19 149.817 186.371 149.474 187.552C157.165 177.048 167.24 168.519 178.871 162.666C189.982 157.463 202.926 156.35 215.27 154.348C230.285 151.9 240.917 169.05 231.621 181.099Z" fill="#F2F2F2"/>
<path d="M70.74 83.2528C70.007 83.2519 69.3044 82.9605 68.7861 82.4424C68.2678 81.9243 67.9763 81.2219 67.9755 80.4892V74.9621C67.9755 74.2291 68.2667 73.5262 68.7852 73.0079C69.3036 72.4896 70.0068 72.1985 70.74 72.1985C71.4732 72.1985 72.1763 72.4896 72.6948 73.0079C73.2132 73.5262 73.5045 74.2291 73.5045 74.9621V80.4892C73.5036 81.2219 73.2121 81.9243 72.6939 82.4424C72.1756 82.9605 71.4729 83.2519 70.74 83.2528Z" fill="#3F3D56"/>
<path d="M70.74 111.594C70.007 111.593 69.3044 111.302 68.7861 110.784C68.2678 110.266 67.9763 109.563 67.9755 108.831V93.6161C67.9755 92.8832 68.2667 92.1802 68.7852 91.662C69.3036 91.1437 70.0068 90.8525 70.74 90.8525C71.4732 90.8525 72.1763 91.1437 72.6948 91.662C73.2132 92.1802 73.5045 92.8832 73.5045 93.6161V108.831C73.5036 109.563 73.2121 110.266 72.6939 110.784C72.1756 111.302 71.4729 111.593 70.74 111.594Z" fill="#3F3D56"/>
<path d="M70.74 134.379C70.007 134.378 69.3044 134.087 68.7861 133.568C68.2678 133.05 67.9763 132.348 67.9755 131.615V116.401C67.9755 115.668 68.2667 114.965 68.7852 114.447C69.3036 113.928 70.0068 113.637 70.74 113.637C71.4732 113.637 72.1763 113.928 72.6948 114.447C73.2132 114.965 73.5045 115.668 73.5045 116.401V131.615C73.5036 132.348 73.2121 133.05 72.6939 133.568C72.1756 134.087 71.4729 134.378 70.74 134.379Z" fill="#3F3D56"/>
<path d="M297.429 121.943C296.696 121.942 295.993 121.65 295.475 121.132C294.957 120.614 294.665 119.912 294.665 119.179V82.0551C294.665 81.3221 294.956 80.6192 295.474 80.1009C295.993 79.5827 296.696 79.2915 297.429 79.2915C298.162 79.2915 298.865 79.5827 299.384 80.1009C299.902 80.6192 300.194 81.3221 300.194 82.0551V119.179C300.193 119.912 299.901 120.614 299.383 121.132C298.865 121.65 298.162 121.942 297.429 121.943Z" fill="#3F3D56"/>
<path d="M190.369 12.6749H168.944C168.486 12.6749 168.046 12.4929 167.722 12.169C167.398 11.8451 167.216 11.4058 167.216 10.9477C167.216 10.4896 167.398 10.0503 167.722 9.72636C168.046 9.40244 168.486 9.22046 168.944 9.22046H190.369C190.827 9.22046 191.266 9.40244 191.59 9.72636C191.914 10.0503 192.096 10.4896 192.096 10.9477C192.096 11.4058 191.914 11.8451 191.59 12.169C191.266 12.4929 190.827 12.6749 190.369 12.6749Z" fill="white"/>
<path d="M201.427 12.3295C202.19 12.3295 202.809 11.7108 202.809 10.9477C202.809 10.1846 202.19 9.56592 201.427 9.56592C200.663 9.56592 200.044 10.1846 200.044 10.9477C200.044 11.7108 200.663 12.3295 201.427 12.3295Z" fill="white"/>
<path d="M137.341 104H113.337C110.014 103.996 106.828 102.675 104.479 100.326C102.129 97.9776 100.808 94.7931 100.804 91.4715V67.4751C100.808 64.1534 102.129 60.9689 104.479 58.6202C106.828 56.2715 110.014 54.9503 113.337 54.9465H137.341C140.664 54.9503 143.849 56.2715 146.199 58.6202C148.548 60.9689 149.87 64.1534 149.874 67.4751V91.4715C149.87 94.7931 148.548 97.9776 146.199 100.326C143.849 102.675 140.664 103.996 137.341 104ZM113.337 56.3283C110.38 56.3317 107.546 57.5072 105.456 59.5969C103.365 61.6866 102.189 64.5198 102.186 67.4751V91.4715C102.189 94.4267 103.365 97.26 105.456 99.3496C107.546 101.439 110.38 102.615 113.337 102.618H137.341C140.297 102.615 143.131 101.439 145.222 99.3496C147.312 97.26 148.488 94.4267 148.491 91.4715V67.4751C148.488 64.5198 147.312 61.6865 145.222 59.5969C143.131 57.5072 140.297 56.3317 137.341 56.3283L113.337 56.3283Z" fill="#E6E6E6"/>
<path d="M196.432 104.345H172.428C169.105 104.342 165.919 103.021 163.57 100.672C161.22 98.3231 159.899 95.1386 159.895 91.8169V67.8205C159.899 64.4989 161.22 61.3144 163.57 58.9657C165.919 56.6169 169.105 55.2957 172.428 55.292H196.432C199.755 55.2957 202.94 56.6169 205.29 58.9657C207.64 61.3144 208.961 64.4989 208.965 67.8205V91.8169C208.961 95.1385 207.64 98.3231 205.29 100.672C202.94 103.021 199.755 104.342 196.432 104.345ZM172.428 56.6738C169.471 56.6772 166.637 57.8527 164.547 59.9423C162.457 62.032 161.281 64.8653 161.277 67.8205V91.8169C161.281 94.7722 162.457 97.6054 164.547 99.6951C166.637 101.785 169.471 102.96 172.428 102.964H196.432C199.388 102.96 202.223 101.785 204.313 99.6951C206.403 97.6054 207.579 94.7722 207.583 91.8169V67.8205C207.579 64.8653 206.403 62.032 204.313 59.9423C202.223 57.8526 199.388 56.6772 196.432 56.6738L172.428 56.6738Z" fill="#E6E6E6"/>
<path d="M255.523 104.691H231.519C228.196 104.687 225.011 103.366 222.661 101.017C220.312 98.6685 218.99 95.484 218.986 92.1624V68.166C218.99 64.8444 220.312 61.6599 222.661 59.3111C225.011 56.9624 228.196 55.6412 231.519 55.6375H255.523C258.846 55.6412 262.032 56.9624 264.381 59.3111C266.731 61.6599 268.052 64.8443 268.056 68.166V92.1624C268.052 95.484 266.731 98.6685 264.381 101.017C262.032 103.366 258.846 104.687 255.523 104.691ZM231.519 57.0193C228.563 57.0226 225.729 58.1981 223.638 60.2878C221.548 62.3775 220.372 65.2107 220.368 68.166V92.1624C220.372 95.1176 221.548 97.9509 223.638 100.041C225.729 102.13 228.563 103.306 231.519 103.309H255.523C258.48 103.306 261.314 102.13 263.404 100.041C265.495 97.9509 266.671 95.1176 266.674 92.1624V68.166C266.671 65.2107 265.495 62.3774 263.404 60.2877C261.314 58.198 258.48 57.0226 255.523 57.0192L231.519 57.0193Z" fill="#E6E6E6"/>
<path d="M137.341 172.398H113.337C110.014 172.395 106.828 171.074 104.479 168.725C102.129 166.376 100.808 163.192 100.804 159.87V135.873C100.808 132.552 102.129 129.367 104.479 127.019C106.828 124.67 110.014 123.349 113.337 123.345H137.341C140.664 123.349 143.849 124.67 146.199 127.019C148.548 129.367 149.87 132.552 149.874 135.873V159.87C149.87 163.192 148.548 166.376 146.199 168.725C143.849 171.074 140.664 172.395 137.341 172.398ZM113.337 124.727C110.38 124.73 107.546 125.906 105.456 127.995C103.365 130.085 102.189 132.918 102.186 135.873V159.87C102.189 162.825 103.365 165.658 105.456 167.748C107.546 169.838 110.38 171.013 113.337 171.017H137.341C140.297 171.013 143.131 169.838 145.222 167.748C147.312 165.658 148.488 162.825 148.491 159.87V135.873C148.488 132.918 147.312 130.085 145.222 127.995C143.131 125.906 140.297 124.73 137.341 124.727L113.337 124.727Z" fill="#E6E6E6"/>
<path d="M196.432 172.744H172.428C169.105 172.74 165.919 171.419 163.57 169.07C161.22 166.721 159.899 163.537 159.895 160.215V136.219C159.899 132.897 161.22 129.713 163.57 127.364C165.919 125.015 169.105 123.694 172.428 123.69H196.432C199.755 123.694 202.94 125.015 205.29 127.364C207.64 129.713 208.961 132.897 208.965 136.219V160.215C208.961 163.537 207.64 166.721 205.29 169.07C202.94 171.419 199.755 172.74 196.432 172.744ZM172.428 125.072C169.471 125.076 166.637 126.251 164.547 128.341C162.457 130.43 161.281 133.264 161.277 136.219V160.215C161.281 163.171 162.457 166.004 164.547 168.094C166.637 170.183 169.471 171.359 172.428 171.362H196.432C199.388 171.359 202.223 170.183 204.313 168.094C206.403 166.004 207.579 163.171 207.583 160.215V136.219C207.579 133.264 206.403 130.43 204.313 128.341C202.223 126.251 199.388 125.076 196.432 125.072L172.428 125.072Z" fill="#E6E6E6"/>
<path d="M255.523 173.089H231.519C228.196 173.086 225.011 171.764 222.661 169.416C220.312 167.067 218.99 163.882 218.986 160.561V136.564C218.99 133.243 220.312 130.058 222.661 127.71C225.011 125.361 228.196 124.04 231.519 124.036H255.523C258.846 124.04 262.032 125.361 264.381 127.71C266.731 130.058 268.052 133.243 268.056 136.564V160.561C268.052 163.882 266.731 167.067 264.381 169.416C262.032 171.764 258.846 173.086 255.523 173.089ZM231.519 125.418C228.563 125.421 225.729 126.597 223.638 128.686C221.548 130.776 220.372 133.609 220.368 136.564V160.561C220.372 163.516 221.548 166.349 223.638 168.439C225.729 170.529 228.563 171.704 231.519 171.708H255.523C258.48 171.704 261.314 170.529 263.404 168.439C265.495 166.349 266.671 163.516 266.674 160.561V136.564C266.671 133.609 265.495 130.776 263.404 128.686C261.314 126.596 258.48 125.421 255.523 125.418L231.519 125.418Z" fill="#E6E6E6"/>
<path d="M137.341 379.667H113.337C110.197 379.663 107.187 378.415 104.967 376.196C102.747 373.977 101.499 370.968 101.495 367.829V343.833C101.499 340.694 102.747 337.685 104.967 335.466C107.187 333.247 110.197 331.999 113.337 331.995H137.341C140.481 331.999 143.491 333.247 145.711 335.466C147.93 337.685 149.179 340.694 149.183 343.833V367.829C149.179 370.968 147.93 373.977 145.711 376.196C143.491 378.415 140.481 379.663 137.341 379.667Z" fill="#1C64F2"/>
<path d="M196.432 380.012H172.428C169.288 380.009 166.278 378.76 164.059 376.541C161.839 374.322 160.59 371.313 160.586 368.175V344.178C160.59 341.04 161.839 338.031 164.059 335.812C166.278 333.592 169.288 332.344 172.428 332.341H196.432C199.572 332.344 202.582 333.592 204.802 335.812C207.022 338.031 208.27 341.04 208.274 344.178V368.175C208.27 371.313 207.022 374.322 204.802 376.541C202.582 378.76 199.572 380.009 196.432 380.012Z" fill="#E6E6E6"/>
<path d="M255.524 380.358H231.519C228.38 380.354 225.37 379.106 223.15 376.887C220.93 374.667 219.681 371.659 219.677 368.52V344.524C219.681 341.385 220.93 338.376 223.15 336.157C225.37 333.938 228.38 332.69 231.519 332.686H255.524C258.663 332.69 261.673 333.938 263.893 336.157C266.113 338.376 267.362 341.385 267.365 344.524V368.52C267.362 371.659 266.113 374.667 263.893 376.887C261.673 379.106 258.663 380.354 255.524 380.358Z" fill="#E6E6E6"/>
<path d="M171.99 312.305C173.898 312.305 175.445 310.758 175.445 308.85C175.445 306.942 173.898 305.396 171.99 305.396C170.081 305.396 168.534 306.942 168.534 308.85C168.534 310.758 170.081 312.305 171.99 312.305Z" fill="#CCCCCC"/>
<path d="M184.43 312.305C186.339 312.305 187.886 310.758 187.886 308.85C187.886 306.942 186.339 305.396 184.43 305.396C182.522 305.396 180.974 306.942 180.974 308.85C180.974 310.758 182.522 312.305 184.43 312.305Z" fill="#E6E6E6"/>
<path d="M196.87 312.305C198.779 312.305 200.326 310.758 200.326 308.85C200.326 306.942 198.779 305.396 196.87 305.396C194.962 305.396 193.415 306.942 193.415 308.85C193.415 310.758 194.962 312.305 196.87 312.305Z" fill="#E6E6E6"/>
<path d="M267.079 387.612H101.966C98.2009 387.608 94.5914 386.111 91.9291 383.45C89.2669 380.788 87.7693 377.18 87.765 373.416V338.246C87.7693 334.482 89.2669 330.874 91.9291 328.212C94.5914 325.551 98.2009 324.054 101.966 324.05H267.079C270.844 324.054 274.454 325.551 277.116 328.212C279.778 330.874 281.276 334.482 281.28 338.246V373.416C281.276 377.18 279.778 380.788 277.116 383.45C274.454 386.111 270.844 387.608 267.079 387.612ZM101.966 325.432C98.5674 325.435 95.3092 326.787 92.9061 329.189C90.503 331.591 89.1512 334.848 89.1473 338.246V373.416C89.1512 376.814 90.503 380.071 92.9061 382.473C95.3092 384.875 98.5674 386.226 101.966 386.23H267.079C270.478 386.226 273.736 384.875 276.139 382.473C278.542 380.071 279.894 376.814 279.898 373.416V338.246C279.894 334.848 278.542 331.591 276.139 329.189C273.736 326.787 270.478 325.435 267.079 325.432H101.966Z" fill="#E6E6E6"/>
<path d="M410.611 89.5997C409.233 89.8132 407.993 90.5557 407.155 91.6693C406.316 92.7828 405.946 94.1795 406.122 95.5621C406.162 95.8425 406.225 96.1192 406.311 96.3892L391.454 107.695L394.54 117.25L413.218 99.5626C414.31 99.12 415.225 98.3284 415.821 97.3112C416.416 96.294 416.657 95.1085 416.507 93.9396C416.416 93.2754 416.194 92.6356 415.855 92.057C415.516 91.4783 415.067 90.972 414.532 90.5671C413.998 90.1621 413.388 89.8664 412.739 89.6968C412.09 89.5272 411.414 89.487 410.75 89.5786C410.704 89.585 410.657 89.592 410.611 89.5997Z" fill="#FFB6B6"/>
<path d="M308.119 142.019C308.214 144.36 309.221 146.571 310.924 148.181C312.627 149.791 314.892 150.671 317.236 150.636L345.288 150.206L380.76 133.76C380.76 133.76 392.328 123.945 395.553 123.714C398.779 123.483 400.496 126.483 399.765 123.744C399.034 121.005 398.067 119.171 400.546 119.427C403.025 119.683 402.631 114.628 403.179 112.716C403.727 110.804 396.187 103.905 396.187 103.905C396.187 103.905 390.754 104.01 390.398 104.723C390.043 105.437 391.28 107.235 388.36 107.158C385.441 107.081 383.211 107.204 383.12 108.559C383.029 109.915 383.241 110.971 381.623 112.021C380.005 113.07 372.702 118.481 372.702 118.481L314.916 132.938C312.912 133.44 311.141 134.617 309.903 136.271C308.665 137.925 308.035 139.955 308.119 142.019Z" fill="#3F3D56"/>
<path d="M323.139 397.121H330.768L334.398 367.707H323.139V397.121Z" fill="#FFB6B6"/>
<path d="M320.65 391.899L332.837 391.171V396.391L344.424 404.391C344.996 404.786 345.427 405.353 345.654 406.011C345.881 406.668 345.891 407.38 345.684 408.044C345.477 408.708 345.063 409.288 344.503 409.7C343.943 410.112 343.266 410.334 342.57 410.334H328.061L325.56 405.171L324.583 410.334H319.113L320.65 391.899Z" fill="#2F2E41"/>
<path d="M335.879 208.67L340.026 183.107L310.999 176.198V202.681L335.879 208.67Z" fill="#FFB6B6"/>
<path d="M299.595 233.197L313.787 325.416C313.787 325.416 312.952 365.495 319.405 374.654L321.02 384.503H335.58C335.58 384.503 335.312 378.454 336.805 374.915C338.298 371.376 340.371 373.721 338.298 370.476C336.225 367.231 336.003 367.59 336.805 364.992C337.607 362.394 338.075 244.613 338.075 244.613L299.595 233.197Z" fill="#2F2E41"/>
<path d="M308.239 351.831L312.66 358.046L338.743 343.959L332.219 334.786L308.239 351.831Z" fill="#FFB6B6"/>
<path d="M311.055 346.776L318.71 356.284L314.454 359.309L314.647 373.384C314.656 374.079 314.443 374.759 314.039 375.325C313.635 375.891 313.06 376.312 312.399 376.528C311.738 376.744 311.025 376.743 310.364 376.526C309.704 376.308 309.13 375.885 308.727 375.318L300.319 363.497L303.079 358.468L298.304 360.664L295.134 356.207L311.055 346.776Z" fill="#2F2E41"/>
<path d="M309.616 187.253L309.419 197.952C309.419 197.952 283.185 220.966 302.966 249.017C302.966 249.017 305.459 257.094 308.92 256.718C312.381 256.342 314.143 258.273 313.262 260.071C312.381 261.869 346.012 283.749 346.012 283.749C346.012 283.749 323.845 332.604 318.601 343.395L322.057 354.449C322.057 354.449 320.226 358.725 323.042 357.105C325.858 355.485 324.472 355.265 327.584 354.684C330.696 354.104 334.531 352.771 334.341 352.056C334.151 351.34 373.034 291.201 373.034 291.201C373.034 291.201 382.35 281.293 375.529 269.681C374.582 269.469 374.557 269.681 374.557 269.681L341.212 231.722L337.261 206.598L309.616 187.253Z" fill="#2F2E41"/>
<path d="M339.615 118.665L322.818 110.795L317.789 119.542C317.789 119.542 304.283 138.809 304.087 152.708C303.891 166.608 306.288 170.741 306.288 170.741C306.288 170.741 300.465 175.093 303.377 177.753C306.288 180.414 312.734 181.561 307.783 182.715C302.833 183.868 304.087 195.544 309.616 197.616C315.145 199.689 344.839 199.671 344.839 199.671C344.572 198.766 344.552 197.805 344.782 196.89C345.012 195.975 345.482 195.137 346.145 194.465C348.447 192.159 350.52 193.814 348.447 190.223C346.374 186.632 342.918 188.704 345.682 183.868C348.447 179.032 348.446 177.587 348.446 177.587C348.446 177.587 355.179 165.979 345.593 155.233C336.007 144.487 345.51 154.497 345.51 154.497L338.656 131.534L339.615 118.665Z" fill="#3F3D56"/>
<path d="M407.664 186.562H383.659C380.52 186.559 377.51 185.31 375.29 183.091C373.07 180.872 371.821 177.863 371.818 174.724V150.728C371.821 147.59 373.07 144.581 375.29 142.361C377.51 140.142 380.52 138.894 383.659 138.89H407.664C410.803 138.894 413.813 140.142 416.033 142.361C418.253 144.581 419.502 147.59 419.505 150.728V174.724C419.502 177.863 418.253 180.872 416.033 183.091C413.813 185.31 410.803 186.559 407.664 186.562Z" fill="#1C64F2"/>
<path d="M420.104 95.364H396.099C392.96 95.3605 389.95 94.1122 387.73 91.893C385.51 89.6738 384.261 86.6649 384.258 83.5264V59.53C384.261 56.3916 385.51 53.3826 387.73 51.1634C389.95 48.9442 392.96 47.6959 396.099 47.6924H420.104C423.243 47.6959 426.253 48.9442 428.473 51.1634C430.693 53.3826 431.942 56.3916 431.945 59.53V83.5264C431.942 86.6649 430.693 89.6738 428.473 91.893C426.253 94.1122 423.243 95.3605 420.104 95.364Z" fill="#1C64F2"/>
<path d="M355.145 109.511L355.159 109.509C355.934 109.418 356.641 109.022 357.124 108.409C357.607 107.796 357.826 107.017 357.734 106.242L355.811 89.9421C355.469 87.0213 354.544 84.1991 353.089 81.6432C350.242 76.6564 345.581 72.96 340.075 71.3244C337.233 70.4835 334.251 70.2265 331.307 70.569C319.263 71.97 315.475 75.3503 312.037 94.906C308.598 114.462 313.963 111.231 313.963 111.231C314.009 111.624 314.134 112.004 314.329 112.348C314.713 113.018 315.341 113.514 316.082 113.733C316.462 113.845 316.86 113.879 317.254 113.833C331.967 114.394 346.846 115.114 355.147 109.511L355.145 109.511Z" fill="#2F2E41"/>
<path d="M323.398 88.0959C322.201 91.0615 321.91 94.3151 322.562 97.4459C323.214 100.577 324.779 103.444 327.06 105.686C329.341 107.928 332.235 109.444 335.378 110.043C338.52 110.642 341.769 110.296 344.715 109.05C346.667 108.231 348.437 107.034 349.922 105.527C351.407 104.019 352.578 102.233 353.368 100.27C354.562 97.306 354.851 94.0552 354.198 90.9274C353.546 87.7995 351.982 84.9347 349.704 82.6942C347.425 80.4536 344.534 78.9376 341.395 78.3372C338.256 77.7369 335.009 78.0792 332.064 79.3208C330.111 80.1374 328.339 81.3336 326.851 82.84C325.364 84.3465 324.19 86.1332 323.398 88.0965L323.398 88.0959Z" fill="#FFB6B6"/>
<path d="M361.139 90.6589C360.869 88.349 360.137 86.1169 358.986 84.0955C357.692 78.8255 355.124 74.3507 348.696 75.9368C346.462 75.2769 344.119 75.0729 341.805 75.3367L338.54 75.7052C338.503 75.7093 338.466 75.7135 338.43 75.7179C333.866 76.2589 329.704 78.59 326.86 82.1985C324.015 85.8069 322.722 90.3971 323.263 94.9593L323.301 95.2858L330.209 94.4995L331.787 87.6473L333.035 94.1791L336.603 93.7744L337.398 90.3174L338.029 93.6106C344.195 97.0686 352.114 95.6249 361.175 90.9863L361.139 90.6589Z" fill="#2F2E41"/>
<path d="M342.744 110.453C342.914 110.967 342.936 111.518 342.809 112.045C342.745 112.314 342.644 112.573 342.509 112.814C342.393 113.02 342.253 113.211 342.092 113.383C341.615 113.893 340.971 114.217 340.278 114.296C340.234 114.3 340.191 114.304 340.147 114.307C340.104 114.31 340.06 114.312 340.017 114.314C339.973 114.315 339.929 114.315 339.885 114.314C339.841 114.313 339.797 114.312 339.752 114.309L337.249 114.153L333.023 107.343L333.802 113.945L322.425 113.254L319.119 85.2355L337.807 83.1228L337.408 83.7133C336.088 85.6928 335.339 87.998 335.245 90.3753C335.162 92.7818 335.491 95.1848 336.22 97.4799C336.939 99.8044 337.88 102.055 339.029 104.199C340.037 106.101 341.154 107.942 342.373 109.715C342.531 109.942 342.655 110.191 342.744 110.453Z" fill="#2F2E41"/>
<path d="M386.732 136.319C385.435 136.83 384.388 137.827 383.815 139.098C383.243 140.369 383.188 141.813 383.664 143.123C383.765 143.387 383.888 143.643 384.031 143.888L372.026 158.185L377.139 166.827L391.467 145.464C392.435 144.792 393.154 143.819 393.51 142.696C393.867 141.573 393.842 140.363 393.439 139.256C393.203 138.628 392.846 138.053 392.388 137.563C391.93 137.073 391.38 136.678 390.769 136.4C390.159 136.123 389.499 135.968 388.829 135.946C388.159 135.923 387.49 136.032 386.862 136.268C386.818 136.284 386.775 136.301 386.732 136.319Z" fill="#FFB6B6"/>
<path d="M323.857 133.451C322.647 133.997 321.57 134.797 320.697 135.797C319.825 136.797 319.178 137.973 318.801 139.245C318.424 140.516 318.325 141.855 318.512 143.168C318.698 144.482 319.165 145.74 319.881 146.856L331.387 164.799L358.341 188.98C358.341 188.98 380.457 173.089 381.148 167.562C381.839 162.035 379.766 160.653 381.839 162.035C383.912 163.417 385.986 162.726 385.295 162.035C384.603 161.344 384.875 161.301 385.43 160.286C385.986 159.272 388.059 154.435 388.059 154.435L380.715 147.181C380.715 147.181 372.854 150.981 372.163 153.054C371.472 155.126 374.237 154.435 371.472 155.126C368.708 155.817 365.015 152.684 367.898 155.978C370.781 159.272 370.544 160.702 367.898 160.678C365.252 160.653 360.414 167.562 360.414 167.562L334.839 136.05C333.553 134.464 331.778 133.35 329.791 132.88C327.804 132.41 325.717 132.61 323.857 133.451Z" fill="#3F3D56"/>
<path d="M406.21 393.837C406.715 393.856 407.213 393.718 407.637 393.444C408.061 393.17 408.391 392.772 408.581 392.305C408.772 391.837 408.814 391.322 408.702 390.83C408.59 390.338 408.329 389.892 407.955 389.553C407.89 389.306 407.844 389.13 407.78 388.884C408.251 387.653 409.079 386.591 410.157 385.834C411.236 385.077 412.517 384.659 413.834 384.634C415.152 384.609 416.448 384.978 417.554 385.694C418.661 386.409 419.529 387.439 420.046 388.651C423.03 395.453 426.875 402.488 425.068 410.029C437.228 383.618 432.696 350.952 414.141 328.642C409.045 325.898 404.889 320.978 403.764 315.229C406.281 316.055 409.39 313.985 407.479 311.361C406.651 310.359 405.816 309.365 404.989 308.363C414.423 298.126 425.93 313.964 415.57 327.759C419.043 332.028 422.06 336.647 424.572 341.543C423.953 336.325 424.582 331.035 426.407 326.107C428.261 321.513 431.78 317.626 434.874 313.641C438.636 308.785 446.494 310.934 447.065 317.045C443.562 318.233 443.154 323.312 447.18 323.968C446.235 335.356 438.899 345.884 428.705 350.971C432.588 361.544 434.173 372.822 433.353 384.055C435.035 370.92 449.09 367.603 458.886 362.296C459.509 361.888 460.237 361.67 460.981 361.669C461.725 361.668 462.454 361.884 463.078 362.289C463.702 362.695 464.194 363.274 464.495 363.955C464.796 364.635 464.892 365.389 464.771 366.123C463.418 366.688 462.124 367.387 460.908 368.208C460.339 368.598 459.904 369.156 459.664 369.803C459.424 370.45 459.39 371.156 459.566 371.824C459.743 372.491 460.122 373.087 460.651 373.531C461.18 373.975 461.834 374.244 462.522 374.302C457.676 386.627 444.925 394.994 431.747 395.073C430.533 400.586 428.749 405.958 426.424 411.103L406.867 411.289C406.794 411.072 406.729 410.848 406.664 410.632C408.475 410.728 410.292 410.603 412.073 410.258C407.229 404.635 403.498 401.778 406.21 393.837L406.21 393.837Z" fill="#F2F2F2"/>
<path d="M1.8899e-05 411.178C-0.000303213 411.286 0.0207552 411.393 0.0619751 411.493C0.103195 411.593 0.163769 411.684 0.240209 411.76C0.316648 411.836 0.407441 411.897 0.507374 411.938C0.607307 411.979 0.714404 412 0.822502 412H495.178C495.396 412 495.605 411.913 495.759 411.759C495.913 411.605 496 411.396 496 411.178C496 410.96 495.913 410.751 495.759 410.597C495.605 410.442 495.396 410.356 495.178 410.356H0.82246C0.714366 410.355 0.60728 410.376 0.507353 410.418C0.407427 410.459 0.316632 410.519 0.240198 410.596C0.163764 410.672 0.103194 410.763 0.0619751 410.863C0.0207564 410.963 -0.000299518 411.07 1.8899e-05 411.178Z" fill="#CCCCCC"/>
<path d="M122.979 20.0864H104.319C103.402 20.0864 102.523 19.7225 101.875 19.0746C101.227 18.4268 100.863 17.5481 100.863 16.632C100.863 15.7158 101.227 14.8371 101.875 14.1893C102.523 13.5414 103.402 13.1775 104.319 13.1775H122.979C123.896 13.1775 124.775 13.5414 125.423 14.1893C126.071 14.8371 126.435 15.7158 126.435 16.632C126.435 17.5481 126.071 18.4268 125.423 19.0746C124.775 19.7225 123.896 20.0864 122.979 20.0864Z" fill="#E6E6E6"/>
<path d="M245.309 19.741C247.026 19.741 248.419 18.349 248.419 16.632C248.419 14.9149 247.026 13.5229 245.309 13.5229C243.591 13.5229 242.198 14.9149 242.198 16.632C242.198 18.349 243.591 19.741 245.309 19.741Z" fill="#E6E6E6"/>
<path d="M254.984 19.741C256.702 19.741 258.094 18.349 258.094 16.632C258.094 14.9149 256.702 13.5229 254.984 13.5229C253.267 13.5229 251.874 14.9149 251.874 16.632C251.874 18.349 253.267 19.741 254.984 19.741Z" fill="#E6E6E6"/>
<path d="M264.66 19.741C266.378 19.741 267.77 18.349 267.77 16.632C267.77 14.9149 266.378 13.5229 264.66 13.5229C262.942 13.5229 261.55 14.9149 261.55 16.632C261.55 18.349 262.942 19.741 264.66 19.741Z" fill="#E6E6E6"/>
<path d="M144.75 135.811C149.33 135.811 153.043 132.099 153.043 127.52C153.043 122.941 149.33 119.229 144.75 119.229C140.169 119.229 136.456 122.941 136.456 127.52C136.456 132.099 140.169 135.811 144.75 135.811Z" fill="#CCCCCC"/>
<path d="M204.878 345.843C209.458 345.843 213.171 342.131 213.171 337.552C213.171 332.973 209.458 329.261 204.878 329.261C200.297 329.261 196.584 332.973 196.584 337.552C196.584 342.131 200.297 345.843 204.878 345.843Z" fill="#CCCCCC"/>
<path d="M137.341 240.797H113.337C110.014 240.793 106.828 239.472 104.479 237.123C102.129 234.775 100.808 231.59 100.804 228.269V204.272C100.808 200.951 102.129 197.766 104.479 195.417C106.828 193.069 110.014 191.747 113.337 191.744H137.341C140.664 191.747 143.849 193.069 146.199 195.417C148.548 197.766 149.87 200.951 149.874 204.272V228.269C149.87 231.59 148.548 234.775 146.199 237.123C143.849 239.472 140.664 240.793 137.341 240.797ZM113.337 193.125C110.38 193.129 107.546 194.304 105.456 196.394C103.365 198.484 102.189 201.317 102.186 204.272V228.269C102.189 231.224 103.365 234.057 105.456 236.147C107.546 238.237 110.38 239.412 113.337 239.415H137.341C140.297 239.412 143.131 238.237 145.222 236.147C147.312 234.057 148.488 231.224 148.491 228.269V204.272C148.488 201.317 147.312 198.484 145.222 196.394C143.131 194.304 140.297 193.129 137.341 193.125L113.337 193.125Z" fill="#E6E6E6"/>
<path d="M196.432 241.143H172.428C169.105 241.139 165.919 239.818 163.57 237.469C161.22 235.12 159.899 231.936 159.895 228.614V204.618C159.899 201.296 161.22 198.112 163.57 195.763C165.919 193.414 169.105 192.093 172.428 192.089H196.432C199.755 192.093 202.94 193.414 205.29 195.763C207.64 198.112 208.961 201.296 208.965 204.618V228.614C208.961 231.936 207.64 235.12 205.29 237.469C202.94 239.818 199.755 241.139 196.432 241.143ZM172.428 193.471C169.471 193.474 166.637 194.65 164.547 196.739C162.457 198.829 161.281 201.662 161.277 204.618V228.614C161.281 231.569 162.456 234.403 164.547 236.492C166.637 238.582 169.471 239.757 172.428 239.761H196.432C199.388 239.757 202.223 238.582 204.313 236.492C206.403 234.403 207.579 231.569 207.583 228.614V204.618C207.579 201.662 206.403 198.829 204.313 196.739C202.223 194.65 199.388 193.474 196.432 193.471L172.428 193.471Z" fill="#E6E6E6"/>
<path d="M255.523 241.488H231.519C228.196 241.484 225.011 240.163 222.661 237.814C220.312 235.466 218.99 232.281 218.986 228.96V204.963C218.99 201.641 220.312 198.457 222.661 196.108C225.011 193.759 228.196 192.438 231.519 192.435H255.523C258.846 192.438 262.032 193.759 264.381 196.108C266.731 198.457 268.052 201.641 268.056 204.963V228.959C268.052 232.281 266.731 235.466 264.381 237.814C262.032 240.163 258.846 241.484 255.523 241.488ZM231.519 193.816C228.563 193.82 225.729 194.995 223.638 197.085C221.548 199.175 220.372 202.008 220.368 204.963V228.959C220.372 231.915 221.548 234.748 223.638 236.838C225.728 238.927 228.563 240.103 231.519 240.106H255.523C258.48 240.103 261.314 238.928 263.404 236.838C265.495 234.748 266.671 231.915 266.674 228.959V204.963C266.671 202.008 265.495 199.175 263.404 197.085C261.314 194.995 258.48 193.82 255.523 193.816L231.519 193.816Z" fill="#E6E6E6"/>
<path d="M204.878 205.591C209.458 205.591 213.171 201.879 213.171 197.3C213.171 192.722 209.458 189.01 204.878 189.01C200.297 189.01 196.584 192.722 196.584 197.3C196.584 201.879 200.297 205.591 204.878 205.591Z" fill="#CCCCCC"/>
</g>
<defs>
<clipPath id="clip0_13191_63934">
<rect width="496" height="412" fill="white"/>
</clipPath>
</defs>
</svg>
