<svg width="21" height="21" viewBox="0 0 21 21" fill="none" xmlns="http://www.w3.org/2000/svg">
<path d="M11.3942 3.05303C11.3111 2.88715 11.1834 2.74767 11.0255 2.6502C10.8676 2.55272 10.6857 2.5011 10.5002 2.5011C10.3146 2.5011 10.1328 2.55272 9.97487 2.6502C9.81698 2.74767 9.68933 2.88715 9.60619 3.05303L2.60619 17.053C2.51933 17.2266 2.48487 17.4217 2.50702 17.6146C2.52916 17.8074 2.60694 17.9896 2.73088 18.139C2.85482 18.2884 3.01956 18.3985 3.20499 18.4558C3.39043 18.5132 3.58855 18.5154 3.77519 18.462L8.77519 17.033C8.98417 16.9733 9.16798 16.847 9.29879 16.6734C9.42961 16.4999 9.50031 16.2884 9.50019 16.071V11.5C9.50019 11.2348 9.60555 10.9805 9.79308 10.7929C9.98062 10.6054 10.235 10.5 10.5002 10.5C10.7654 10.5 11.0198 10.6054 11.2073 10.7929C11.3948 10.9805 11.5002 11.2348 11.5002 11.5V16.071C11.5001 16.2884 11.5708 16.4999 11.7016 16.6734C11.8324 16.847 12.0162 16.9733 12.2252 17.033L17.2252 18.461C17.4118 18.5145 17.6099 18.5124 17.7953 18.4552C17.9808 18.398 18.1456 18.288 18.2696 18.1388C18.3936 17.9895 18.4715 17.8074 18.4938 17.6146C18.5162 17.4218 18.4819 17.2267 18.3952 17.053L11.3952 3.05303H11.3942Z" fill="white"/>
</svg>
