<svg width="33" height="32" viewBox="0 0 33 32" fill="none" xmlns="http://www.w3.org/2000/svg">
<path d="M28.3624 4.1376C27.7623 3.53769 26.9485 3.20068 26.1 3.20068C25.2515 3.20068 24.4377 3.53769 23.8376 4.1376L11.7 16.2752V20.8H16.2248L28.3624 8.6624C28.9623 8.06231 29.2993 7.24853 29.2993 6.4C29.2993 5.55147 28.9623 4.73769 28.3624 4.1376Z" fill="#1A56DB"/>
<path fill-rule="evenodd" clip-rule="evenodd" d="M3.70001 9.5999C3.70001 8.75121 4.03715 7.93728 4.63727 7.33716C5.23739 6.73704 6.05132 6.3999 6.90001 6.3999H13.3C13.7244 6.3999 14.1313 6.56847 14.4314 6.86853C14.7314 7.16859 14.9 7.57556 14.9 7.9999C14.9 8.42425 14.7314 8.83121 14.4314 9.13127C14.1313 9.43133 13.7244 9.5999 13.3 9.5999H6.90001V25.5999H22.9V19.1999C22.9 18.7756 23.0686 18.3686 23.3686 18.0685C23.6687 17.7685 24.0757 17.5999 24.5 17.5999C24.9244 17.5999 25.3313 17.7685 25.6314 18.0685C25.9314 18.3686 26.1 18.7756 26.1 19.1999V25.5999C26.1 26.4486 25.7629 27.2625 25.1628 27.8626C24.5626 28.4628 23.7487 28.7999 22.9 28.7999H6.90001C6.05132 28.7999 5.23739 28.4628 4.63727 27.8626C4.03715 27.2625 3.70001 26.4486 3.70001 25.5999V9.5999Z" fill="#1A56DB"/>
</svg>
