<svg width="18" height="19" viewBox="0 0 18 19" fill="none" xmlns="http://www.w3.org/2000/svg">
<path d="M12.2274 3.38488C12.3935 3.21296 12.5921 3.07583 12.8117 2.98149C13.0313 2.88716 13.2675 2.8375 13.5065 2.83543C13.7455 2.83335 13.9825 2.87889 14.2037 2.9694C14.4249 3.0599 14.6259 3.19356 14.7949 3.36257C14.9639 3.53157 15.0976 3.73255 15.1881 3.95376C15.2786 4.17497 15.3241 4.412 15.3221 4.651C15.32 4.89 15.2703 5.1262 15.176 5.3458C15.0817 5.56541 14.9445 5.76403 14.7726 5.93008L14.0589 6.64378L11.5137 4.09858L12.2274 3.38488V3.38488ZM10.2411 5.37118L2.70001 12.9123V15.4575H5.24521L12.7872 7.91638L10.2402 5.37118H10.2411Z" fill="#6B7280"/>
</svg>
