<svg width="18" height="19" viewBox="0 0 18 19" fill="none" xmlns="http://www.w3.org/2000/svg">
<path d="M7.74268 2.67866L7.74256 2.67889L7.09096 3.98119L6.95273 4.25746H6.64381H3.60001C3.49393 4.25746 3.39218 4.2996 3.31717 4.37462C3.24215 4.44963 3.20001 4.55137 3.20001 4.65746C3.20001 4.76355 3.24215 4.86529 3.31717 4.9403C3.39218 5.01532 3.49393 5.05746 3.60001 5.05746H4.10001V5.55746V14.5575C4.10001 14.9022 4.23698 15.2329 4.48077 15.4767C4.72457 15.7205 5.05523 15.8575 5.40001 15.8575H12.6C12.9448 15.8575 13.2755 15.7205 13.5193 15.4767C13.763 15.2329 13.9 14.9022 13.9 14.5575V5.55746V5.05746H14.4C14.5061 5.05746 14.6078 5.01532 14.6829 4.9403C14.7579 4.86529 14.8 4.76355 14.8 4.65746C14.8 4.55137 14.7579 4.44963 14.6829 4.37462C14.6078 4.2996 14.5061 4.25746 14.4 4.25746H11.3562H11.0473L10.9091 3.98119L10.2575 2.67889L10.2573 2.67866C10.2241 2.61223 10.1731 2.55635 10.11 2.51728C10.0468 2.47823 9.97407 2.45752 9.89984 2.45746C9.89981 2.45746 9.89978 2.45746 9.89975 2.45746L7.74268 2.67866ZM7.74268 2.67866C7.77588 2.61223 7.82691 2.55635 7.89007 2.51728C7.95323 2.47821 8.02601 2.4575 8.10028 2.45746L7.74268 2.67866ZM6.21006 6.36751C5.94751 6.63006 5.80001 6.98616 5.80001 7.35746V12.7575C5.80001 13.1288 5.94751 13.4849 6.21006 13.7474C6.47261 14.01 6.82871 14.1575 7.20001 14.1575C7.57132 14.1575 7.92741 14.01 8.18996 13.7474C8.45251 13.4849 8.60001 13.1288 8.60001 12.7575V7.35746C8.60001 6.98616 8.45251 6.63006 8.18996 6.36751C7.92741 6.10496 7.57132 5.95746 7.20001 5.95746C6.82871 5.95746 6.47261 6.10496 6.21006 6.36751ZM10.8 5.95746C10.4287 5.95746 10.0726 6.10496 9.81006 6.36751C9.54751 6.63006 9.40001 6.98616 9.40001 7.35746V12.7575C9.40001 13.1288 9.54751 13.4849 9.81006 13.7474C10.0726 14.01 10.4287 14.1575 10.8 14.1575C11.1713 14.1575 11.5274 14.01 11.79 13.7474C12.0525 13.4849 12.2 13.1288 12.2 12.7575V7.35746C12.2 6.98616 12.0525 6.63006 11.79 6.36751C11.5274 6.10496 11.1713 5.95746 10.8 5.95746Z" fill="#F05252" stroke="#F05252"/>
</svg>
