<svg width="18" height="19" viewBox="0 0 18 19" fill="none" xmlns="http://www.w3.org/2000/svg">
<path fill-rule="evenodd" clip-rule="evenodd" d="M9.00001 8.25742C9.7161 8.25742 10.4029 7.97296 10.9092 7.46661C11.4155 6.96026 11.7 6.27351 11.7 5.55742C11.7 4.84134 11.4155 4.15458 10.9092 3.64823C10.4029 3.14189 9.7161 2.85742 9.00001 2.85742C8.28393 2.85742 7.59717 3.14189 7.09082 3.64823C6.58448 4.15458 6.30001 4.84134 6.30001 5.55742C6.30001 6.27351 6.58448 6.96026 7.09082 7.46661C7.59717 7.97296 8.28393 8.25742 9.00001 8.25742ZM2.70001 16.3574C2.70001 15.5301 2.86297 14.7109 3.17957 13.9465C3.49618 13.1822 3.96023 12.4877 4.54524 11.9026C5.13025 11.3176 5.82476 10.8536 6.58911 10.537C7.35346 10.2204 8.17268 10.0574 9.00001 10.0574C9.82734 10.0574 10.6466 10.2204 11.4109 10.537C12.1753 10.8536 12.8698 11.3176 13.4548 11.9026C14.0398 12.4877 14.5038 13.1822 14.8205 13.9465C15.1371 14.7109 15.3 15.5301 15.3 16.3574H2.70001Z" fill="#6B7280"/>
</svg>
